PathFileType	4	(X/Y/Z)	pose_F01_0-94.trc
DataRate	CameraRate	NumFrames	NumMarkers	Units	OrigDataRate	OrigDataStartFrame	OrigNumFrames
30	30	10	21	m	30	56	94
Frame#	Time	CHip			RHip			RKnee			RAnkle			RBigToe			RSmallToe			RHeel			LHip			LKnee			LAnkle			LBigToe			LSmallToe			LHeel			Neck			Nose			RShoulder			RElbow			RWrist			LShoulder			LElbow			LWrist			
		X1	Y1	Z1	X2	Y2	Z2	X3	Y3	Z3	X4	Y4	Z4	X5	Y5	Z5	X6	Y6	Z6	X7	Y7	Z7	X8	Y8	Z8	X9	Y9	Z9	X10	Y10	Z10	X11	Y11	Z11	X12	Y12	Z12	X13	Y13	Z13	X14	Y14	Z14	X15	Y15	Z15	X16	Y16	Z16	X17	Y17	Z17	X18	Y18	Z18	X19	Y19	Z19	X20	Y20	Z20	X21	Y21	Z21	
56	1.8666666666666667	-0.2587930447875645	1.88312603745195	-0.6114817065292837	-0.2711902735213907	1.8784362550979574	-0.5427063308075218																-0.2396125647585253	1.8863562685831792	-0.6812345482293494	-0.24580814946098298	1.7305386468237367	-0.6746174267709498													-0.259649973691937	2.05556018384685	-0.633529994051575	-0.24400046644573997	2.124384140096524	-0.6085065110780088	-0.2835697390675357	2.048516953188924	-0.5417513715969995	-0.28413101807780616	1.9641026526283554	-0.4889399078343693	-0.2785023855368001	1.890715526784651	-0.42859950107686695	-0.23609100916608022	2.060068411715686	-0.7254614514326932	-0.22818499875585035	1.9745500599315058	-0.7599608309521045	-1.0780132428958078	1.7997760426128333	0.044094865548933534
57	1.9	-0.2564477888485132	1.882673053464066	-0.6133585342597966	-0.26922383572445	1.8789553111958117	-0.5448164771971626																-0.23940915203676172	1.8849671863052173	-0.6809453258524479	-0.24595480319729682	1.7307253015628832	-0.6750749875138365													-0.2597319828814983	2.0531398619154344	-0.6332376674155932	-0.24400258745227096	2.1243165837543625	-0.6085327566947174	-0.28359700068516036	2.048485008346057	-0.5418422939554024	-1.6446900201017411	1.8730843705700648	0.9606476700917566	-0.28240385543005353	1.885707391452228	-0.45744470070115645	-0.23605835857182458	2.058933372597836	-0.7250459569250522	-0.22657133619154388	1.9719979708406994	-0.7536153133343644	-0.2179467117066296	1.8972127869472306	-0.7674442918737618
58	1.9333333333333333	-0.25747788658413356	1.881080185789909	-0.608118849741072	-0.271004725219226	1.8754809331406725	-0.5422381503696481																-0.23846810019216014	1.8831669111113132	-0.6778074322122906	-0.24610145693361063	1.7309119563020297	-0.6755325482567232													-0.25959790007840156	2.054326756448272	-0.6330976411752846	-0.24409433729837962	2.1231059327256174	-0.6086302186963932	-0.2834139139302972	2.0496887290039214	-0.5416991182825575	-1.6351311580150474	1.8715663543433168	0.9430785163650354	-0.3060714043651647	1.8950621126969913	-0.4577249264631294	-0.23608059121780386	2.0590473350324543	-0.7250155273202542	-0.21998683864198995	1.9688868284900087	-0.7605187499555686	-0.19808381870802552	1.8888036505008814	-0.7597583638379594
59	1.9666666666666666	-0.25829554989506187	1.8824759485144087	-0.6113462458655708	-0.2709845474654025	1.877320586755046	-0.5426525721063608																-0.23838192015450796	1.8838089566499852	-0.678050890007165	-0.24624811066992447	1.7310986110411761	-0.6759901089996099													-0.25955731782279845	2.0544626101116013	-0.6330981977471867	-0.24411096535501728	2.1231455874083447	-0.6086913639446148	-0.28152005045766876	2.049707297348216	-0.5438359782926754	-1.644562524534255	1.8735713316360119	0.9602683962807862	-0.32133242111798394	1.8946209651771753	-0.40998040473961406	-0.23593664330594166	2.060165641190118	-0.7248213056857763	-0.2089453117760858	1.973925442482157	-0.7748299725347568	-0.1761136811741414	1.8929199095253284	-0.8009010889775826
60	2.0	-0.25755423303475555	1.8857720837081706	-0.6086957161352864	-0.27103467305149154	1.8796314990115581	-0.5428380819764499																-0.2386662210088183	1.8887435647845376	-0.6785036853417258	-0.24639476440623828	1.7312852657803224	-0.6764476697424966													-0.25760577561046494	2.055709910941038	-0.6357102166164911	-0.24409938536982012	2.123094716698131	-0.6087185255414315	-0.2824808048828228	2.051198078836617	-0.5473628257327227	-0.3096037322442419	1.9798112655373175	-0.4651147557181333	-0.32720485023239393	1.9125173236345145	-0.3694135002950077	-0.23590932647511767	2.0612936456415047	-0.7253201671471875	-0.19479260521043554	1.9777522678254214	-0.7883282972500198	-1.046340742395952	1.8033893844948963	0.026340991594272632
61	2.033333333333333	-0.258378129901717	1.8850340765457305	-0.6115407424670829	-0.2710541349790632	1.8795416200184267	-0.5428558715864219																-0.23928092856047142	1.8892524703073275	-0.6814517757099215	-0.24654141814255212	1.7314719205194689	-0.6769052304853833													-0.25851163534547444	2.055843772490479	-0.6385539725275942	-0.24410571844141532	2.123077287385536	-0.6087531838045813	-0.2844823116648122	2.051006769042006	-0.5453016293672415	-0.310858685065943	1.9819593624615508	-0.4376739984371949	-0.3356160095588365	1.9195069095295985	-0.31511469851838747	-0.23382980893555072	2.0613452674641253	-0.7274200661080406	-0.19199733406355757	2.0018280803026043	-0.803293713969802	-0.982120255937543	1.8158062380088764	-0.07699370575440878
62	2.066666666666667	-0.25760330321799385	1.882958039981155	-0.6083535902444629	-0.2711036890388389	1.8766284473282921	-0.542518895070816																-0.2384603207264732	1.8862426179454217	-0.6781499304961276	-0.24668807187886593	1.7316585752586153	-0.6773627912282699													-0.2584391916447586	2.054662822603252	-0.6381512142071902	-0.24500673635711734	2.122000058504323	-0.6111199961857968	-0.28148708200510686	2.0484874664608	-0.5434007318908779	-0.3057770994311134	1.987335254200839	-0.416607305886312	-0.33268065154410553	1.9324203495239307	-0.2740997805321122	-0.23377413473278053	2.061464132148755	-0.7274809972956059	-0.1920977746197674	2.0039599391675265	-0.8267651522657035	-0.917899769479134	1.8282230915228568	-0.1803284031030902
63	2.1	-0.25786877165600053	1.8830499846564912	-0.6083526402593488	-0.27136533687642633	1.8770898314158984	-0.5425074001105266																-0.23897114737088615	1.886439842998747	-0.6781656868273913	-0.24683472561517977	1.7318452299977618	-0.6778203519711566													-0.257537475131999	2.0545941312458966	-0.6351745388658265	-0.24501902319215874	2.1219916349277965	-0.6111458580986	-0.2834073601857619	2.048454371362355	-0.5412128543665462	-0.30683446539522397	1.992326261390431	-0.4129440523121101	-0.329369534630058	1.94172944198402	-0.2667853228102691	-0.23291971991062763	2.0615075242128666	-0.7245697447514976	-0.19342989564528773	2.011690116847634	-0.8321840973139087	-0.14051585396123456	1.9582352537725964	-0.9421296305589317
64	2.1333333333333333	-0.2578010174435628	1.885767497824561	-0.6086775151289143	-0.27131924032219856	1.8798303201560949	-0.5428395851388153																-0.2387888313123585	1.8876582986187787	-0.6782933902638271	-0.2467963421435381	1.7315771633682946	-0.6778208969938142													-0.2575236533820391	2.0545581863014664	-0.6351751420011638	-0.24499766147565466	2.1231901325257936	-0.6116438155115748	-0.2834233546163936	2.049703892526894	-0.5417401633484529	-0.30322790979374453	1.9929064317316592	-0.41773799035634357	-0.3250653602857936	1.9410485539168973	-0.2683286255036644	-0.2330290486144454	2.0601503530842082	-0.7246565432481475	-0.19613193224743516	2.008069298792372	-0.8413097214771064	-0.14945620818939215	1.9552230527349437	-0.9526183069105153
65	2.1666666666666665	-0.25559526427776585	1.8829984288847066	-0.6104366154954564	-0.2710350417831291	1.8792402547706608	-0.5428383529837457																-0.2386490520475908	1.8861671068958563	-0.678177677297761	-0.24675795867189643	1.7313090967388276	-0.6778214420164719													-0.25751831658307844	2.054620707136895	-0.6352380771712792	-0.24499759587929676	2.1232296408416382	-0.6116243265110995	-0.28145127914716517	2.0498435007966025	-0.5438646247813109	-0.30599090975723314	1.9846723436013287	-0.4236927901827018	-0.3223617056230312	1.9310792609521386	-0.2854162370014261	-0.23303315136243977	2.0602895827934744	-0.7246788357778996	-0.2017964081987415	2.0045703632118226	-0.8394556700033523	-0.1608121391794378	1.9448118426032732	-0.9455847584793826
